<?xml version="1.0" encoding="utf-8"?>
<svg viewBox="-19.941 -30.616 300.096 65.799" xmlns="http://www.w3.org/2000/svg" xmlns:xlink="http://www.w3.org/1999/xlink" xmlns:bx="https://boxy-svg.com" style="background-color:white">
  <defs>
    <path id="text-path-2" d="M 89.252 44.228 C 101.93 27.839 126.459 28.708 141.458 46.986"/>
    <path id="path-2" style="fill: none;" d="M 147.4708221811975 44.83977132319811 L 185.002440665015 42.54192664130808"/>
    <style bx:fonts="Abril Fatface">@import url(https://fonts.googleapis.com/css2?family=Abril+Fatface%3Aital%2Cwght%400%2C400&amp;display=swap);</style>
  </defs>
  <g transform="matrix(1, 0, 0, 1, 7.105427357601002e-15, 0)">
    <g id="SvgjsG2382" featurekey="PG4fjM-0" transform="matrix(2.349136, 0, 0, 3.100085, -19.538159, -54.760553)" fill="#3b3c98" style="">
      <g transform="translate(-270 -140)" id="g11">
        <g id="g9">
          <path d="M279,161c-0.736,0-1.375,0.405-1.722,1c-0.172,0.295-0.278,0.635-0.278,1c0,1.102,0.897,2,2,2c1.103,0,2-0.898,2-2    c0-0.365-0.105-0.705-0.278-1C280.375,161.405,279.737,161,279,161z" id="path3"/>
          <path d="M293,161c-0.736,0-1.375,0.405-1.722,1c-0.172,0.295-0.278,0.635-0.278,1c0,1.102,0.897,2,2,2c1.103,0,2-0.898,2-2    c0-0.365-0.105-0.705-0.278-1C294.375,161.405,293.737,161,293,161z" id="path5"/>
          <path d="M299,159v-1l-6-1.715L286,152h-11v1h6v1h-11v1h12v1h-10v1h5v1h-2v1h-4v1h5v1h-1v1h-3v1h4c0-0.352,0.072-0.686,0.184-1    c0.414-1.162,1.512-2,2.816-2c1.305,0,2.402,0.838,2.816,2c0.111,0.314,0.184,0.648,0.184,1h8c0-0.352,0.072-0.686,0.184-1    c0.414-1.162,1.512-2,2.816-2c1.305,0,2.402,0.838,2.816,2c0.111,0.314,0.184,0.648,0.184,1h3v-1h1v-3H299z" id="path7"/>
        </g>
      </g>
    </g>
    <g>
      <g id="SvgjsG2383" featurekey="jxYttZ-0" transform="matrix(2.679731, 0, 0, 2.511219, 49.21248, -31.739331)" fill="#111111" style="">
        <path d="M 10.88 19.66 C 10.32 19.887 9.783 20.037 9.27 20.11 C 8.756 20.183 8.186 20.22 7.56 20.22 C 6.426 20.22 5.433 20.04 4.58 19.68 C 3.726 19.32 3.016 18.817 2.45 18.17 C 1.883 17.523 1.456 16.753 1.17 15.86 C 0.883 14.967 0.74 13.987 0.74 12.92 C 0.74 11.853 0.886 10.867 1.18 9.96 C 1.473 9.053 1.903 8.273 2.47 7.62 C 3.036 6.967 3.74 6.457 4.58 6.09 C 5.42 5.723 6.38 5.54 7.46 5.54 C 8.086 5.54 8.653 5.6 9.16 5.72 C 9.666 5.84 10.16 6.007 10.64 6.22 L 9.82 8.88 C 9.553 8.76 9.256 8.653 8.93 8.56 C 8.603 8.467 8.213 8.42 7.76 8.42 C 5.386 8.42 4.2 9.92 4.2 12.92 C 4.2 14.427 4.506 15.54 5.12 16.26 C 5.733 16.98 6.68 17.34 7.96 17.34 C 8.386 17.34 8.763 17.31 9.09 17.25 C 9.416 17.19 9.74 17.1 10.06 16.98 L 10.88 19.66 Z M 17.5 15.42 C 17.366 15.393 17.226 15.377 17.08 15.37 C 16.933 15.363 16.806 15.36 16.7 15.36 C 16.14 15.36 15.686 15.447 15.34 15.62 C 14.993 15.793 14.82 16.093 14.82 16.52 C 14.82 16.787 14.883 16.997 15.01 17.15 C 15.136 17.303 15.293 17.417 15.48 17.49 C 15.666 17.563 15.863 17.607 16.07 17.62 C 16.276 17.633 16.453 17.64 16.6 17.64 C 16.866 17.64 17.166 17.607 17.5 17.54 L 17.5 15.42 Z M 16.46 13.22 C 16.566 13.22 16.709 13.223 16.889 13.23 C 17.069 13.237 17.273 13.247 17.499 13.26 C 17.486 12.74 17.303 12.403 16.949 12.25 C 16.596 12.097 16.139 12.02 15.579 12.02 C 15.273 12.02 14.919 12.057 14.519 12.13 C 14.119 12.203 13.686 12.313 13.219 12.46 L 12.899 11.36 C 12.859 11.213 12.803 11 12.729 10.72 C 12.656 10.44 12.606 10.22 12.579 10.06 C 13.246 9.833 13.876 9.67 14.469 9.57 C 15.063 9.47 15.599 9.42 16.079 9.42 C 17.493 9.42 18.586 9.757 19.359 10.43 C 20.133 11.103 20.519 12.18 20.519 13.66 L 20.519 19.52 C 19.999 19.667 19.399 19.81 18.719 19.95 C 18.039 20.09 17.306 20.16 16.519 20.16 C 15.826 20.16 15.196 20.1 14.629 19.98 C 14.063 19.86 13.576 19.66 13.169 19.38 C 12.763 19.1 12.449 18.733 12.229 18.28 C 12.009 17.827 11.899 17.273 11.899 16.62 C 11.899 15.967 12.036 15.42 12.309 14.98 C 12.583 14.54 12.936 14.19 13.369 13.93 C 13.803 13.67 14.289 13.487 14.829 13.38 C 15.369 13.273 15.913 13.22 16.459 13.22 L 16.46 13.22 Z M 26.06 9.92 C 26.22 9.813 26.443 9.71 26.73 9.61 C 27.016 9.51 27.34 9.46 27.7 9.46 C 28.006 9.46 28.256 9.473 28.45 9.5 C 28.643 9.527 28.74 9.533 28.74 9.52 L 28.74 12.18 C 28.433 12.153 28.133 12.147 27.84 12.16 C 27.586 12.187 27.323 12.23 27.049 12.29 C 26.776 12.35 26.526 12.46 26.299 12.62 C 26.033 12.807 25.843 13.06 25.729 13.38 C 25.616 13.7 25.559 14.14 25.559 14.7 L 25.559 20.02 L 22.559 20.02 L 22.559 12.08 L 20.939 12.08 L 22.219 9.54 L 25.559 9.54 L 25.559 10.32 C 25.626 10.267 25.686 10.213 25.739 10.16 C 25.793 10.12 25.846 10.077 25.9 10.03 C 25.953 9.983 26.006 9.947 26.06 9.92 Z" id="path14"/>
      </g>
      <text style="fill: rgb(195, 25, 25); font-family: 'Abril Fatface'; font-size: 13.4px; font-weight: 700; text-transform: uppercase; white-space: pre; text-decoration: underline solid rgba(0, 0, 0, 0.8); transform-box: fill-box; transform-origin: 79.4526% 50.4746%;" transform="matrix(2.516231, 0, 0, 2.603676, 117.533451, -33.934552)"><textPath xlink:href="#text-path-2">Market</textPath></text>
    </g>
  </g>
  <text style="fill: rgb(51, 51, 51); font-family: Arial, sans-serif; font-size: 28px; white-space: pre;" transform="matrix(1, 0, 0, 1, 7.105427357601002e-15, 0)"><textPath xlink:href="#path-2"> </textPath></text>
</svg>